{"title":"Stolichani v poveche - Season 4 - Episode 11 - SatRip","uid":7868809,"size":393406637,"categoryP":"video","categoryS":"tv_shows","magnet":"?xt=urn:btih:834c94d4e15468f2697493f0a112c3cd62902f69&amp;dn=Stolichani+v+poveche+-+Season+4+-+Episode+11+-+SatRip&amp;tr=udp%3A%2F%2Ftracker.openbittorrent.com%3A80&amp;tr=udp%3A%2F%2Fopen.demonii.com%3A1337&amp;tr=udp%3A%2F%2Ftracker.coppersurfer.tk%3A6969&amp;tr=udp%3A%2F%2Fexodus.desync.com%3A6969","seeders":1,"leechers":0,"uploader":null,"files":1,"time":1354137128,"description":"Input #0, mov,mp4,m4a,3gp,3g2,mj2, from 'Stolichani v poveche - Season 4 - Episode 11.mp4':\n  Metadata:\n    major_brand     : mp42\n    minor_version   : 0\n    compatible_brands: mp42isomavc1\n    creation_time   : 2012-11-28 20:05:46\n    encoder         : HandBrake 5044svn 2012110601\n  Duration: 00:47:23.46, start: 0.000000, bitrate: 1106 kb/s\n    Stream #0:0(und): Video: h264 (Main) (avc1 / 0x31637661), yuv420p, 720x576 [SAR 16:11 DAR 20:11], 1010 kb/s, 25 fps, 25 tbr, 90k tbn, 180k tbc\n    Metadata:\n      creation_time   : 2012-11-28 20:05:46\n    Stream #0:1(und): Audio: aac (mp4a / 0x6134706D), 48000 Hz, stereo, s16, 91 kb/s\n    Metadata:\n      creation_time   : 2012-11-28 20:05:46","torrent":{"xt":"urn:btih:834c94d4e15468f2697493f0a112c3cd62902f69","amp;dn":"Stolichani+v+poveche+-+Season+4+-+Episode+11+-+SatRip","amp;tr":["udp%3A%2F%2Ftracker.openbittorrent.com%3A80","udp%3A%2F%2Fopen.demonii.com%3A1337","udp%3A%2F%2Ftracker.coppersurfer.tk%3A6969","udp%3A%2F%2Fexodus.desync.com%3A6969"],"infoHash":"834c94d4e15468f2697493f0a112c3cd62902f69","infoHashBuffer":{"type":"Buffer","data":[131,76,148,212,225,84,104,242,105,116,147,240,161,18,195,205,98,144,47,105]},"announce":[],"urlList":[]}}